<?xml version="1.0" encoding="utf-8"?>

<!DOCTYPE svg PUBLIC "-//W3C//DTD SVG 1.1//EN" "http://www.w3.org/Graphics/SVG/1.1/DTD/svg11.dtd">
<!-- Uploaded to: SVG Repo, www.svgrepo.com, Generator: SVG Repo Mixer Tools -->
<svg height="800px" width="800px" version="1.1" id="_x32_" xmlns="http://www.w3.org/2000/svg" xmlns:xlink="http://www.w3.org/1999/xlink" 
	 viewBox="0 0 512 512"  xml:space="preserve">
<style type="text/css">
	.st0{fill:#000000;}
</style>
<g>
	<path class="st0" d="M503.462,175.026c-9.17-27.778-27.024-39.163-42.703-33.992c-12.665,4.185-19.858,17.989-17.396,37.745
		l-59.994,19.802c-11.654-27.844-32.25-50.944-58.14-65.941l21.812-71.596c18.69,1.626,31.463-5.402,35.078-17.272
		c4.581-15.034-7.103-31.926-34.563-40.289c-27.46-8.371-46.579-0.866-51.16,14.161c-3.701,12.146,3.394,25.42,20.652,34.522
		l-20.682,67.851c-12.632-3.82-26.013-5.924-39.894-5.924c-16.47,0-32.194,3.044-46.833,8.357l-11.274-30.994
		c13.419-8.199,18.585-18.988,15.187-28.329c-4.301-11.833-20.506-16.81-43.176-8.55c-22.67,8.244-31.904,22.465-27.592,34.298
		c3.473,9.55,14.796,14.49,30.93,11.751l12.072,33.187c-20.13,12.109-36.898,29.15-48.598,49.548L71.2,158.022
		c3.1-20.592-3.443-35.022-15.806-39.514c-15.662-5.7-34.493,6.499-45.416,36.506c-10.927,30.001-4.357,51.467,11.311,57.167
		c12.642,4.611,27.285-2.679,38.234-21.369l64.362,24.749c-3.122,11.504-4.936,23.554-4.936,36.051
		c0,21.152,4.917,41.11,13.449,59.016l-45.957,26.532c-11.008-12.304-23.342-15.527-32.675-10.14
		c-11.818,6.827-14.322,24.652-1.672,46.542c12.635,21.89,29.318,28.65,41.14,21.824c9.546-5.514,12.848-18.265,7.17-34.471
		l46.284-26.725c19.174,25.449,46.904,44.005,78.99,51.362l-7.767,71.707c-20.357,1.522-32.489,10.192-33.757,21.913
		c-1.608,14.862,14.609,28.792,45.837,32.172c31.228,3.388,50.052-6.752,51.66-21.614c1.298-11.99-9.207-23.293-29.676-29.016
		l7.77-71.745c33.888-0.806,64.672-13.848,88.231-34.902l53.946,45.616c-10.2,17.831-9.8,32.828-0.739,40.491
		c11.478,9.699,32.232,4.036,52.638-20.1c20.406-24.129,22.546-45.542,11.068-55.234c-9.267-7.842-24.602-5.446-40.905,8.394
		l-53.28-45.057c14.695-21.89,23.286-48.22,23.286-76.565c0-7.618-0.78-15.041-1.97-22.316l61.572-20.331
		c9.747,16.474,23.412,22.875,35.794,18.787C505.062,222.574,512.631,202.796,503.462,175.026z"/>
</g>
</svg>