<?xml version="1.0" encoding="iso-8859-1"?>
<!-- Uploaded to: SVG Repo, www.svgrepo.com, Generator: SVG Repo Mixer Tools -->
<!DOCTYPE svg PUBLIC "-//W3C//DTD SVG 1.1//EN" "http://www.w3.org/Graphics/SVG/1.1/DTD/svg11.dtd">
<svg fill="#000000" version="1.1" id="Capa_1" xmlns="http://www.w3.org/2000/svg" xmlns:xlink="http://www.w3.org/1999/xlink" 
	 width="800px" height="800px" viewBox="0 0 96.623 96.622"
	 xml:space="preserve">
<g>
	<g>
		<path d="M31.642,22.691c5.311,1.138,10.541-2.246,11.68-7.559c0.254-1.183,0.271-2.359,0.105-3.49L48.828,0l-7.489,1.934
			l-9.606-1.933l-1.482,3.866l0.002,0.001c-3.033,1.139-5.44,3.743-6.17,7.143C22.946,16.324,26.33,21.553,31.642,22.691z"/>
		<circle cx="68.822" cy="25.679" r="9.281"/>
		<path d="M93.753,91.378l-0.355-1.323l-7.661,3.541c0.624,2.184,2.882,3.475,5.079,2.883
			C93.037,95.881,94.351,93.598,93.753,91.378z"/>
		<polygon points="92.696,87.441 84.388,88.602 85.307,92.012 92.97,88.467 		"/>
		<path d="M91.451,82.814l-7.293,3.104c0.012-0.021,0.021-0.043,0.031-0.064c0.016-0.209,0.023-0.42,0.043-0.627
			c0.034-0.406,0.098-0.801,0.186-1.188l6.607-2.812l-4.27-16.293c-0.147-0.559-0.414-1.058-0.75-1.494
			c0.045,0,0.09,0.002,0.137,0.002c1.988,0,3.604-1.612,3.604-3.603c0-1.989-1.613-3.603-3.604-3.603
			c-5.432,0-8.93-2.24-10.742-13.689c-0.042-0.26-0.111-0.508-0.205-0.744c-0.447-3.334-3.511-5.569-6.376-6.271
			c0,0-0.976-0.293-2.015-0.27c-0.996,0.023-2.105,0.253-2.105,0.253l-0.027,0.006c-3.121,0.765-6.447,3.309-6.447,7.126
			l0.001,18.57l-2.724-19.313c-0.215-1.614-1.705-2.747-3.312-2.532c-1.615,0.214-2.749,1.697-2.531,3.312l0.153,1.121
			c-11.314-1.577-11.554-3.209-12.983-13.285c-0.021-0.156-0.07-0.301-0.11-0.45c-0.295-3.052-2.695-5.567-5.206-6.784
			c0,0-0.949-0.52-2.031-0.727c-1.036-0.198-2.235-0.205-2.235-0.205l-0.029-0.002c-3.406,0.099-7.416,1.998-8.264,5.954
			L2.724,69.779h9.701c-0.245,1.85-0.467,3.205-0.637,3.757c-0.428,1.382-3.744,6.526-7.097,11.011
			c-1.649,2.208-1.698,5.086,0.509,6.737c2.36,1.464,4.757,0.553,5.737-0.759c1.718-2.295,7.418-10.096,8.639-14.037
			c0.383-1.236,0.784-3.752,1.161-6.711h6.997c0.73,1.914,1.238,3.365,1.367,3.992c0.288,1.418-0.146,7.523-0.929,13.066
			c-0.388,2.73,0.972,5.891,4.242,5.643c0.238-0.018-0.527,0.051-0.295,0.051c2.446,0,4.584-1.801,4.938-4.293
			c0.402-2.84,1.65-12.42,0.824-16.461c-0.103-0.514-0.298-1.196-0.556-1.996h4.013c0,0-8.04-17.162-7.844-23.169l0.283-1.327
			c2.74,3.199,7.266,5.035,15.334,6.137c0.176,0.023,0.352,0.035,0.521,0.035c0.422,0,0.83-0.079,1.214-0.209l2.415,17.361
			c-1.596,2.664-2.516,5.777-2.516,9.102c0,9.799,7.971,17.77,17.77,17.77c6.475,0,12.15-3.48,15.257-8.67l0.001,0.006
			c0.023-0.068,0.055-0.135,0.079-0.203l0.108,0.402l8.306-1.16L91.451,82.814z M73.197,57.889c1.854,1.644,3.939,3.07,6.297,4.239
			L73.197,62.1V57.889z M68.517,89.417c-6.455,0-11.709-5.252-11.709-11.709c0-1.468,0.283-2.868,0.779-4.163
			c0.209,0.031,0.42,0.053,0.637,0.053h21.242c0.484,1.281,0.762,2.664,0.762,4.11C80.228,84.165,74.974,89.417,68.517,89.417z"/>
	</g>
</g>
</svg>