<svg width="1680" height="188" viewBox="0 0 1680 188" fill="none" xmlns="http://www.w3.org/2000/svg">
<rect width="1680" height="188" fill="#72B4F5"/>
<g opacity="0.61" clip-path="url(#clip0_8_41)">
<g clip-path="url(#clip1_8_41)">
<path d="M87.2905 133.784L68.2059 133.792L68.1983 114.919C67.9527 111.55 65.2416 108.871 61.8342 108.631L55.4727 108.633C52.0655 108.876 49.3566 111.557 49.1137 114.927L49.1212 133.799L30.0366 133.807C26.6295 134.05 23.9205 136.731 23.6776 140.1L23.6801 146.391C23.9257 149.76 26.6368 152.439 30.0442 152.679L49.1288 152.672L49.1363 171.544C49.382 174.913 52.0931 177.592 55.5004 177.832L61.8619 177.83C65.2691 177.587 67.978 174.906 68.221 171.537L68.2134 152.664L87.298 152.656C90.7052 152.413 93.4141 149.732 93.6571 146.363L93.6546 140.072C93.6532 136.598 90.804 133.783 87.2905 133.784Z" fill="white"/>
</g>
<g clip-path="url(#clip2_8_41)">
<path d="M159.011 1.96666C149.08 -3.27144 137.138 0.898766 132.627 11.1799L130.421 16.4642C130.244 16.8486 129.411 17.1395 129.033 16.9491L124.017 14.1863C114.087 8.94823 102.422 13.0215 97.9113 23.3026C93.4001 33.5837 97.8159 46.2291 107.746 51.4672L113.796 54.5138L148.88 72.8938C149.258 73.0843 150.092 72.7933 150.269 72.4089L166.286 36.1842L169.124 30.0342C173.635 19.7531 169.219 7.10779 159.011 1.96666Z" stroke="white" stroke-width="2" stroke-miterlimit="10" stroke-linecap="round" stroke-linejoin="round"/>
<path d="M117.049 42.4148L125.381 39.5054L128.928 31.8179L138.497 41.374L139.033 25.0647L147.599 31.7469L155.93 28.8374" stroke="white" stroke-width="2" stroke-miterlimit="10" stroke-linecap="round" stroke-linejoin="round"/>
</g>
<g clip-path="url(#clip3_8_41)">
<path d="M915.011 1.96666C905.08 -3.27144 893.138 0.898766 888.627 11.1799L886.422 16.4642C886.244 16.8486 885.411 17.1395 885.033 16.9491L880.017 14.1863C870.087 8.94823 858.423 13.0215 853.911 23.3026C849.4 33.5837 853.816 46.2291 863.746 51.4672L869.796 54.5138L904.88 72.8938C905.258 73.0843 906.092 72.7933 906.269 72.4089L922.286 36.1842L925.124 30.0342C929.635 19.7531 925.219 7.10779 915.011 1.96666Z" stroke="white" stroke-width="2" stroke-miterlimit="10" stroke-linecap="round" stroke-linejoin="round"/>
<path d="M873.049 42.4148L881.381 39.5054L884.928 31.8179L894.497 41.374L895.033 25.0647L903.599 31.7469L911.93 28.8374" stroke="white" stroke-width="2" stroke-miterlimit="10" stroke-linecap="round" stroke-linejoin="round"/>
</g>
<g clip-path="url(#clip4_8_41)">
<path d="M1666.01 103.967C1656.08 98.7286 1644.14 102.899 1639.63 113.18L1637.42 118.464C1637.24 118.849 1636.41 119.139 1636.03 118.949L1631.02 116.186C1621.09 110.948 1609.42 115.021 1604.91 125.303C1600.4 135.584 1604.82 148.229 1614.75 153.467L1620.8 156.514L1655.88 174.894C1656.26 175.084 1657.09 174.793 1657.27 174.409L1673.29 138.184L1676.12 132.034C1680.63 121.753 1676.22 109.108 1666.01 103.967Z" stroke="white" stroke-width="2" stroke-miterlimit="10" stroke-linecap="round" stroke-linejoin="round"/>
<path d="M1624.05 144.415L1632.38 141.505L1635.93 133.818L1645.5 143.374L1646.03 127.065L1654.6 133.747L1662.93 130.837" stroke="white" stroke-width="2" stroke-miterlimit="10" stroke-linecap="round" stroke-linejoin="round"/>
</g>
<path d="M239.969 120.344V159.844C239.969 162.559 242.359 164.781 245.281 164.781H303.719C306.641 164.781 309.031 162.559 309.031 159.844V120.344C309.031 117.628 306.641 115.406 303.719 115.406H245.281C242.359 115.406 239.969 117.628 239.969 120.344Z" stroke="white" stroke-width="2" stroke-miterlimit="10" stroke-linecap="round" stroke-linejoin="round"/>
<path d="M255.906 179.594H293.094" stroke="white" stroke-width="2" stroke-miterlimit="10" stroke-linecap="round" stroke-linejoin="round"/>
<path d="M266.531 164.781C266.531 169.966 264.672 176.138 261.75 179.594" stroke="#FCFFFF" stroke-width="2" stroke-miterlimit="10" stroke-linecap="round" stroke-linejoin="round"/>
<path d="M287.25 179.594C284.328 176.138 282.469 169.966 282.469 164.781" stroke="white" stroke-width="2" stroke-miterlimit="10" stroke-linecap="round" stroke-linejoin="round"/>
<path d="M250.594 140.094H263.875L269.188 135.156L274.5 145.031L279.812 132.688L285.125 140.094H298.406" stroke="white" stroke-width="2" stroke-miterlimit="10" stroke-linecap="round" stroke-linejoin="round"/>
<g clip-path="url(#clip5_8_41)">
<path d="M165.054 144.569C160.26 147.992 153.485 146.851 149.899 142.016L131.081 115.485C127.673 110.68 128.818 103.883 133.642 100.281C138.436 96.8574 145.211 97.9986 148.797 102.833L167.615 129.364C170.992 134.348 169.847 141.145 165.054 144.569Z" stroke="#FCFCFC" stroke-width="2" stroke-miterlimit="10" stroke-linecap="round" stroke-linejoin="round"/>
<path d="M141.011 128.378L158.102 116.173" stroke="#F7F7F7" stroke-width="2" stroke-miterlimit="10" stroke-linecap="round" stroke-linejoin="round"/>
<path d="M176.058 156.99C172.505 152.291 173.46 145.487 178.195 141.77L204.201 122.235C208.911 118.697 215.737 119.655 219.47 124.379C223.023 129.077 222.068 135.881 217.333 139.598L191.326 159.134C186.437 162.647 179.611 161.688 176.058 156.99Z" stroke="#FCFCFC" stroke-width="2" stroke-miterlimit="10" stroke-linecap="round" stroke-linejoin="round"/>
<path d="M191.585 132.513L204.252 149.264" stroke="#F7F7F7" stroke-width="2" stroke-miterlimit="10" stroke-linecap="round" stroke-linejoin="round"/>
<path d="M164.455 182.666C160.511 187.041 153.649 187.386 149.106 183.437L125.015 161.583C120.652 157.625 120.306 150.741 124.241 146.184C128.185 141.808 135.047 141.463 139.59 145.412L163.681 167.267C168.052 171.406 168.399 178.29 164.455 182.666Z" stroke="#FCFCFC" stroke-width="2" stroke-miterlimit="10" stroke-linecap="round" stroke-linejoin="round"/>
<path d="M137.489 172.034L151.55 156.434" stroke="#F7F7F7" stroke-width="2" stroke-miterlimit="10" stroke-linecap="round" stroke-linejoin="round"/>
</g>
<g clip-path="url(#clip6_8_41)">
<path d="M767.054 57.5685C762.26 60.9919 755.485 59.8508 751.899 55.0159L733.081 28.4851C729.673 23.6803 730.818 16.8831 735.642 13.2808C740.436 9.85744 747.211 10.9986 750.797 15.8334L769.615 42.3643C772.992 47.348 771.847 54.1452 767.054 57.5685Z" stroke="#FCFCFC" stroke-width="2" stroke-miterlimit="10" stroke-linecap="round" stroke-linejoin="round"/>
<path d="M743.011 41.3784L760.102 29.1733" stroke="#F7F7F7" stroke-width="2" stroke-miterlimit="10" stroke-linecap="round" stroke-linejoin="round"/>
<path d="M778.058 69.9896C774.505 65.2913 775.46 58.4874 780.195 54.7703L806.201 35.2345C810.911 31.6965 817.737 32.6551 821.47 37.3787C825.023 42.077 824.068 48.881 819.333 52.598L793.326 72.1338C788.437 75.6466 781.611 74.688 778.058 69.9896Z" stroke="#FCFCFC" stroke-width="2" stroke-miterlimit="10" stroke-linecap="round" stroke-linejoin="round"/>
<path d="M793.584 45.5131L806.252 62.2638" stroke="#F7F7F7" stroke-width="2" stroke-miterlimit="10" stroke-linecap="round" stroke-linejoin="round"/>
<path d="M766.455 95.6657C762.511 100.041 755.649 100.386 751.106 96.4375L727.015 74.5827C722.652 70.6248 722.306 63.7406 726.241 59.1838C730.185 54.8082 737.047 54.4631 741.59 58.412L765.681 80.2667C770.053 84.4058 770.399 91.29 766.455 95.6657Z" stroke="#FCFCFC" stroke-width="2" stroke-miterlimit="10" stroke-linecap="round" stroke-linejoin="round"/>
<path d="M739.489 85.0345L753.55 69.4345" stroke="#F7F7F7" stroke-width="2" stroke-miterlimit="10" stroke-linecap="round" stroke-linejoin="round"/>
</g>
<g clip-path="url(#clip7_8_41)">
<path d="M1104.05 134.569C1099.26 137.992 1092.48 136.851 1088.9 132.016L1070.08 105.485C1066.67 100.68 1067.82 93.8831 1072.64 90.2808C1077.44 86.8574 1084.21 87.9986 1087.8 92.8334L1106.61 119.364C1109.99 124.348 1108.85 131.145 1104.05 134.569Z" stroke="#FCFCFC" stroke-width="2" stroke-miterlimit="10" stroke-linecap="round" stroke-linejoin="round"/>
<path d="M1080.01 118.378L1097.1 106.173" stroke="#F7F7F7" stroke-width="2" stroke-miterlimit="10" stroke-linecap="round" stroke-linejoin="round"/>
<path d="M1115.06 146.99C1111.5 142.291 1112.46 135.487 1117.2 131.77L1143.2 112.235C1147.91 108.697 1154.74 109.655 1158.47 114.379C1162.02 119.077 1161.07 125.881 1156.33 129.598L1130.33 149.134C1125.44 152.647 1118.61 151.688 1115.06 146.99Z" stroke="#FCFCFC" stroke-width="2" stroke-miterlimit="10" stroke-linecap="round" stroke-linejoin="round"/>
<path d="M1130.58 122.513L1143.25 139.264" stroke="#F7F7F7" stroke-width="2" stroke-miterlimit="10" stroke-linecap="round" stroke-linejoin="round"/>
<path d="M1103.45 172.666C1099.51 177.041 1092.65 177.386 1088.11 173.437L1064.02 151.583C1059.65 147.625 1059.31 140.741 1063.24 136.184C1067.18 131.808 1074.05 131.463 1078.59 135.412L1102.68 157.267C1107.05 161.406 1107.4 168.29 1103.45 172.666Z" stroke="#FCFCFC" stroke-width="2" stroke-miterlimit="10" stroke-linecap="round" stroke-linejoin="round"/>
<path d="M1076.49 162.034L1090.55 146.434" stroke="#F7F7F7" stroke-width="2" stroke-miterlimit="10" stroke-linecap="round" stroke-linejoin="round"/>
</g>
<path d="M28.6 22.7C28.6 22.7 10.6 35.3 10.6 52.8C10.6 62.7 18.7 70.8 28.6 70.8C38.5 70.8 46.6 62.7 46.6 52.8C46.6 35 28.6 22.7 28.6 22.7ZM20.5 56.9C18.9 54.9 18 52.5 18 50C18 47.6 18.6 45.2 19.8 42.8L21.2 43.5C20.1 45.7 19.6 47.9 19.6 50C19.6 52.1 20.4 54.2 21.7 55.8L20.5 56.9Z" fill="white"/>
<path d="M57.6 49.9C57.6 49.9 45.9 58.2 45.9 69.5C45.9 76 51.2 81.2 57.6 81.2C64.1 81.2 69.3 75.9 69.3 69.5C69.4 58 57.6 49.9 57.6 49.9ZM52.1 72.4C51 71.1 50.4 69.4 50.4 67.7C50.4 66.1 50.8 64.5 51.6 62.8L53 63.5C52.3 64.9 52 66.3 52 67.7C52 69 52.5 70.3 53.3 71.3L52.1 72.4Z" fill="white"/>
<path d="M976.6 21.7C976.6 21.7 958.6 34.3 958.6 51.8C958.6 61.7 966.7 69.8 976.6 69.8C986.5 69.8 994.6 61.7 994.6 51.8C994.6 34 976.6 21.7 976.6 21.7ZM968.5 55.9C966.9 53.9 966 51.5 966 49C966 46.6 966.6 44.2 967.8 41.8L969.2 42.5C968.1 44.7 967.6 46.9 967.6 49C967.6 51.1 968.4 53.2 969.7 54.8L968.5 55.9Z" fill="white"/>
<path d="M1005.6 48.9C1005.6 48.9 993.9 57.2 993.9 68.5C993.9 75 999.2 80.2 1005.6 80.2C1012.1 80.2 1017.3 74.9 1017.3 68.5C1017.4 57 1005.6 48.9 1005.6 48.9ZM1000.1 71.4C999 70.1 998.4 68.4 998.4 66.7C998.4 65.1 998.8 63.5 999.6 61.8L1001 62.5C1000.3 63.9 1000 65.3 1000 66.7C1000 68 1000.5 69.3 1001.3 70.3L1000.1 71.4Z" fill="white"/>
<path d="M1273.6 2.70001C1273.6 2.70001 1255.6 15.3 1255.6 32.8C1255.6 42.7 1263.7 50.8 1273.6 50.8C1283.5 50.8 1291.6 42.7 1291.6 32.8C1291.6 15 1273.6 2.70001 1273.6 2.70001ZM1265.5 36.9C1263.9 34.9 1263 32.5 1263 30C1263 27.6 1263.6 25.2 1264.8 22.8L1266.2 23.5C1265.1 25.7 1264.6 27.9 1264.6 30C1264.6 32.1 1265.4 34.2 1266.7 35.8L1265.5 36.9Z" fill="white"/>
<path d="M1302.6 29.9C1302.6 29.9 1290.9 38.2 1290.9 49.5C1290.9 56 1296.2 61.2 1302.6 61.2C1309.1 61.2 1314.3 55.9 1314.3 49.5C1314.4 38 1302.6 29.9 1302.6 29.9ZM1297.1 52.4C1296 51.1 1295.4 49.4 1295.4 47.7C1295.4 46.1 1295.8 44.5 1296.6 42.8L1298 43.5C1297.3 44.9 1297 46.3 1297 47.7C1297 49 1297.5 50.3 1298.3 51.3L1297.1 52.4Z" fill="white"/>
<path d="M204.969 75.875L212.938 83.9375" stroke="#F7FBFC" stroke-width="2" stroke-miterlimit="10" stroke-linecap="round" stroke-linejoin="round"/>
<path d="M210.281 51.6875L236.844 78.5625" stroke="white" stroke-width="2" stroke-miterlimit="10" stroke-linecap="round" stroke-linejoin="round"/>
<path d="M210.281 78.5625L223.562 65.125" stroke="white" stroke-width="2" stroke-miterlimit="10" stroke-linecap="round" stroke-linejoin="round"/>
<path d="M218.25 59.75L244.812 32.875L255.438 43.625L228.875 70.5" stroke="white" stroke-width="2" stroke-miterlimit="10" stroke-linecap="round" stroke-linejoin="round"/>
<path d="M250.125 38.25L271.375 16.75" stroke="white" stroke-width="2" stroke-miterlimit="10" stroke-linecap="round" stroke-linejoin="round"/>
<g clip-path="url(#clip8_8_41)">
<path d="M353.128 88.234C350.178 88.234 347.7 90.052 347.228 92.577H337.316C333.776 92.577 331.062 91.668 329.174 89.951C325.516 86.618 325.87 81.265 325.87 81.063V60.459H330.59C338.26 60.459 342.036 51.47 342.154 51.066L347.936 31.169C350.178 23.392 343.216 18.948 342.862 18.746L335.546 14.504V13.292C335.546 11.676 334.012 10.363 332.124 10.363C330.236 10.363 328.702 11.676 328.702 13.292V18.14C328.702 19.756 330.236 21.069 332.124 21.069C334.012 21.069 335.546 19.756 335.546 18.14V17.029L341.564 20.564C341.8 20.665 347.464 24.402 345.694 30.866L339.912 50.662C339.912 50.662 336.608 58.641 330.59 58.641H324.69H318.79C312.772 58.641 309.468 50.662 309.468 50.662L303.686 30.866C301.798 24.402 307.58 20.665 307.816 20.564L313.834 17.029V18.14C313.834 19.756 315.368 21.069 317.256 21.069C319.144 21.069 320.678 19.756 320.678 18.14V13.292C320.678 11.676 319.144 10.363 317.256 10.363C315.368 10.363 313.834 11.676 313.834 13.292V14.504L306.518 18.746C306.164 18.948 299.32 23.392 301.444 31.169L307.226 51.066C307.344 51.47 311.12 60.459 318.79 60.459H323.51V80.962C323.51 81.265 323.156 87.325 327.522 91.264C329.882 93.486 333.304 94.597 337.434 94.597H347.464C348.054 96.92 350.532 98.637 353.364 98.637C356.668 98.637 359.382 96.314 359.382 93.486C359.382 90.658 356.432 88.234 353.128 88.234ZM353.128 96.617C351.122 96.617 349.47 95.203 349.47 93.486C349.47 91.769 351.122 90.355 353.128 90.355C355.134 90.355 356.786 91.769 356.786 93.486C356.786 95.203 355.134 96.617 353.128 96.617Z" fill="white"/>
</g>
<g clip-path="url(#clip9_8_41)">
<path d="M1121.74 66.4863C1118.98 67.5368 1117.32 70.1181 1117.77 72.6456L1108.51 76.1754C1105.2 77.436 1102.34 77.553 1099.97 76.6209C1095.36 74.8091 1093.79 69.6809 1093.72 69.4922L1086.38 50.2388L1090.79 48.558C1097.96 45.8267 1098.28 36.0823 1098.25 35.6628L1096.57 15.0111C1095.89 6.94552 1087.81 5.27206 1087.4 5.20936L1079.06 3.85071L1078.62 2.71817C1078.05 1.2081 1076.15 0.527444 1074.38 1.19977C1072.62 1.8721 1071.65 3.64529 1072.23 5.15536L1073.95 9.68555C1074.53 11.1956 1076.43 11.8763 1078.2 11.2039C1079.96 10.5316 1080.93 8.75842 1080.35 7.24836L1079.95 6.21019L1086.84 7.37041C1087.09 7.38075 1093.72 8.85578 1094.36 15.5263L1096.01 36.0836C1096.01 36.0836 1095.77 44.7162 1090.14 46.8592L1084.63 48.9602L1079.12 51.0613C1073.49 53.2043 1067.56 46.9249 1067.56 46.9249L1055.11 30.4857C1051.04 25.1177 1055.12 19.5667 1055.3 19.3883L1059.67 13.942L1060.06 14.9801C1060.64 16.4902 1062.54 17.1709 1064.3 16.4985C1066.07 15.8262 1067.03 14.053 1066.46 12.5429L1064.73 8.01275C1064.15 6.50269 1062.25 5.82203 1060.49 6.49436C1058.73 7.16669 1057.76 8.93988 1058.34 10.4499L1058.77 11.5825L1053.44 18.1517C1053.18 18.4665 1048.37 25.0564 1053.12 31.5672L1065.61 48.1008C1065.87 48.4363 1072.6 55.4914 1079.76 52.7601L1084.17 51.0793L1091.47 70.2382C1091.58 70.5213 1093.41 76.3101 1098.89 78.4361C1101.89 79.6721 1105.48 79.4916 1109.34 78.0209L1118.71 74.4492C1120.09 76.4098 1123.02 77.1318 1125.67 76.1233C1128.75 74.9467 1130.46 71.8096 1129.45 69.1669C1128.45 66.5243 1124.83 65.3097 1121.74 66.4863ZM1124.73 74.3198C1122.85 75.0341 1120.8 74.3011 1120.19 72.6967C1119.58 71.0922 1120.62 69.1826 1122.5 68.4683C1124.37 67.7539 1126.42 68.487 1127.03 70.0914C1127.64 71.6958 1126.6 73.6054 1124.73 74.3198Z" fill="white"/>
</g>
<g clip-path="url(#clip10_8_41)">
<path d="M1621.74 75.4863C1618.98 76.5368 1617.32 79.1181 1617.77 81.6456L1608.51 85.1754C1605.2 86.436 1602.34 86.553 1599.97 85.6209C1595.36 83.8091 1593.79 78.6809 1593.72 78.4922L1586.38 59.2388L1590.79 57.558C1597.96 54.8267 1598.28 45.0823 1598.25 44.6628L1596.57 24.0111C1595.89 15.9455 1587.81 14.2721 1587.4 14.2094L1579.06 12.8507L1578.62 11.7182C1578.05 10.2081 1576.15 9.52744 1574.38 10.1998C1572.62 10.8721 1571.65 12.6453 1572.23 14.1554L1573.95 18.6855C1574.53 20.1956 1576.43 20.8763 1578.2 20.2039C1579.96 19.5316 1580.93 17.7584 1580.35 16.2484L1579.95 15.2102L1586.84 16.3704C1587.09 16.3807 1593.72 17.8558 1594.36 24.5263L1596.01 45.0836C1596.01 45.0836 1595.77 53.7162 1590.14 55.8592L1584.63 57.9602L1579.12 60.0613C1573.49 62.2043 1567.56 55.9249 1567.56 55.9249L1555.11 39.4857C1551.04 34.1177 1555.12 28.5667 1555.3 28.3883L1559.67 22.942L1560.06 23.9801C1560.64 25.4902 1562.54 26.1709 1564.3 25.4985C1566.07 24.8262 1567.03 23.053 1566.46 21.5429L1564.73 17.0128C1564.15 15.5027 1562.25 14.822 1560.49 15.4944C1558.73 16.1667 1557.76 17.9399 1558.34 19.4499L1558.77 20.5825L1553.44 27.1517C1553.18 27.4665 1548.37 34.0564 1553.12 40.5672L1565.61 57.1008C1565.87 57.4363 1572.6 64.4914 1579.76 61.7601L1584.17 60.0793L1591.47 79.2382C1591.58 79.5213 1593.41 85.3101 1598.89 87.4361C1601.89 88.6721 1605.48 88.4916 1609.34 87.0209L1618.71 83.4492C1620.09 85.4098 1623.02 86.1318 1625.67 85.1233C1628.75 83.9467 1630.46 80.8096 1629.45 78.1669C1628.45 75.5243 1624.83 74.3097 1621.74 75.4863ZM1624.73 83.3198C1622.85 84.0341 1620.8 83.3011 1620.19 81.6967C1619.58 80.0922 1620.62 78.1826 1622.5 77.4683C1624.37 76.7539 1626.42 77.487 1627.03 79.0914C1627.64 80.6958 1626.6 82.6054 1624.73 83.3198Z" fill="white"/>
</g>
<g clip-path="url(#clip11_8_41)">
<path d="M621.128 179.89C618.178 179.89 615.7 181.42 615.228 183.545H605.316C601.776 183.545 599.062 182.78 597.174 181.335C593.516 178.53 593.87 174.025 593.87 173.855V156.515H598.59C606.26 156.515 610.036 148.95 610.154 148.61L615.936 131.865C618.178 125.32 611.216 121.58 610.862 121.41L603.546 117.84V116.82C603.546 115.46 602.012 114.355 600.124 114.355C598.236 114.355 596.702 115.46 596.702 116.82V120.9C596.702 122.26 598.236 123.365 600.124 123.365C602.012 123.365 603.546 122.26 603.546 120.9V119.965L609.564 122.94C609.8 123.025 615.464 126.17 613.694 131.61L607.912 148.27C607.912 148.27 604.608 154.985 598.59 154.985H592.69H586.79C580.772 154.985 577.468 148.27 577.468 148.27L571.686 131.61C569.798 126.17 575.58 123.025 575.816 122.94L581.834 119.965V120.9C581.834 122.26 583.368 123.365 585.256 123.365C587.144 123.365 588.678 122.26 588.678 120.9V116.82C588.678 115.46 587.144 114.355 585.256 114.355C583.368 114.355 581.834 115.46 581.834 116.82V117.84L574.518 121.41C574.164 121.58 567.32 125.32 569.444 131.865L575.226 148.61C575.344 148.95 579.12 156.515 586.79 156.515H591.51V173.77C591.51 174.025 591.156 179.125 595.522 182.44C597.882 184.31 601.304 185.245 605.434 185.245H615.464C616.054 187.2 618.532 188.645 621.364 188.645C624.668 188.645 627.382 186.69 627.382 184.31C627.382 181.93 624.432 179.89 621.128 179.89ZM621.128 186.945C619.122 186.945 617.47 185.755 617.47 184.31C617.47 182.865 619.122 181.675 621.128 181.675C623.134 181.675 624.786 182.865 624.786 184.31C624.786 185.755 623.134 186.945 621.128 186.945Z" fill="white"/>
</g>
<path fill-rule="evenodd" clip-rule="evenodd" d="M469 20.75H439L433.712 15.4037C432.287 13.9629 430.375 13.1666 428.387 13.1666H409C404.837 13.1666 401.537 16.5412 401.537 20.75L401.5 66.25C401.5 70.4587 404.837 73.8333 409 73.8333H469C473.125 73.8333 476.5 70.4208 476.5 66.25V28.3333C476.5 24.1625 473.125 20.75 469 20.75ZM461.5 51.0833H454V58.6666C454 60.752 452.312 62.4583 450.25 62.4583C448.187 62.4583 446.5 60.752 446.5 58.6666V51.0833H439C436.937 51.0833 435.25 49.377 435.25 47.2916C435.25 45.2062 436.937 43.5 439 43.5H446.5V35.9166C446.5 33.8312 448.187 32.125 450.25 32.125C452.312 32.125 454 33.8312 454 35.9166V43.5H461.5C463.562 43.5 465.25 45.2062 465.25 47.2916C465.25 49.377 463.562 51.0833 461.5 51.0833Z" fill="white"/>
<path d="M632.281 7V14.375H624.219V21.75H632.281V29.125H640.344V21.75H648.406V14.375H640.344V7H632.281ZM596 14.375V99.1875H632.281V88.125H640.344V99.1875H676.625V14.375H656.469V21.75H668.562V91.8125H648.406V80.75H624.219V91.8125H604.062V21.75H616.156V14.375H596ZM616.156 36.5V43.875H624.219V36.5H616.156ZM632.281 36.5V43.875H640.344V36.5H632.281ZM648.406 36.5V43.875H656.469V36.5H648.406ZM616.156 51.25V58.625H624.219V51.25H616.156ZM632.281 51.25V58.625H640.344V51.25H632.281ZM648.406 51.25V58.625H656.469V51.25H648.406ZM616.156 66V73.375H624.219V66H616.156ZM632.281 66V73.375H640.344V66H632.281ZM648.406 66V73.375H656.469V66H648.406Z" fill="white"/>
<g clip-path="url(#clip12_8_41)">
<path d="M537.766 83.125H523.234V81.5625C523.234 81.1481 523.081 80.7507 522.809 80.4576C522.536 80.1646 522.167 80 521.781 80H501.438C501.052 80 500.682 80.1646 500.41 80.4576C500.137 80.7507 499.984 81.1481 499.984 81.5625V83.125H485.453C485.068 83.125 484.698 83.2896 484.426 83.5826C484.153 83.8757 484 84.2731 484 84.6875V153.438C484 153.852 484.153 154.249 484.426 154.542C484.698 154.835 485.068 155 485.453 155H537.766C538.151 155 538.521 154.835 538.793 154.542C539.066 154.249 539.219 153.852 539.219 153.438V84.6875C539.219 84.2731 539.066 83.8757 538.793 83.5826C538.521 83.2896 538.151 83.125 537.766 83.125ZM502.891 83.125H520.328V90.9375H502.891V83.125ZM521.781 94.0625C522.167 94.0625 522.536 93.8979 522.809 93.6049C523.081 93.3118 523.234 92.9144 523.234 92.5V90.9375H531.953V147.188H491.266V90.9375H499.984V92.5C499.984 92.9144 500.137 93.3118 500.41 93.6049C500.682 93.8979 501.052 94.0625 501.438 94.0625H521.781ZM536.312 151.875H486.906V86.25H499.984V87.8125H489.812C489.427 87.8125 489.057 87.9771 488.785 88.2701C488.512 88.5632 488.359 88.9606 488.359 89.375V148.75C488.359 149.164 488.512 149.562 488.785 149.855C489.057 150.148 489.427 150.312 489.812 150.312H533.406C533.792 150.312 534.161 150.148 534.434 149.855C534.706 149.562 534.859 149.164 534.859 148.75V89.375C534.859 88.9606 534.706 88.5632 534.434 88.2701C534.161 87.9771 533.792 87.8125 533.406 87.8125H523.234V86.25H536.312V151.875Z" fill="white"/>
<path d="M492.719 97.1875V109.688C492.719 110.102 492.872 110.499 493.144 110.792C493.417 111.085 493.786 111.25 494.172 111.25H505.797C506.182 111.25 506.552 111.085 506.824 110.792C507.097 110.499 507.25 110.102 507.25 109.688V100.523L509.633 98.3875L507.773 95.9875L507.128 96.5656C507.015 96.2865 506.829 96.0488 506.593 95.8817C506.356 95.7147 506.08 95.6254 505.797 95.625H494.172C493.786 95.625 493.417 95.7896 493.144 96.0826C492.872 96.3757 492.719 96.7731 492.719 97.1875ZM495.625 98.75H504.344V99.0625L500.074 102.889L498.105 100.77L496.051 102.98L498.957 106.105C499.213 106.38 499.556 106.543 499.919 106.56C500.281 106.578 500.636 106.45 500.914 106.2L504.344 103.125V108.125H495.625V98.75Z" fill="white"/>
<path d="M530.5 98.75H510.156V101.875H530.5V98.75Z" fill="white"/>
<path d="M523.234 105H510.156V108.125H523.234V105Z" fill="white"/>
<path d="M530.5 105H526.141V108.125H530.5V105Z" fill="white"/>
<path d="M507.128 113.75C507.015 113.471 506.829 113.234 506.592 113.068C506.356 112.901 506.079 112.813 505.797 112.812H494.172C493.786 112.812 493.417 112.977 493.144 113.27C492.872 113.563 492.719 113.961 492.719 114.375V126.875C492.719 127.289 492.872 127.687 493.144 127.98C493.417 128.273 493.786 128.438 494.172 128.438H505.797C506.182 128.438 506.552 128.273 506.824 127.98C507.097 127.687 507.25 127.289 507.25 126.875V117.711L509.633 115.575L507.773 113.175L507.128 113.75ZM504.344 125.312H495.625V115.938H504.344V116.25L500.074 120.077L498.105 117.958L496.051 120.167L498.957 123.292C499.213 123.568 499.556 123.73 499.919 123.748C500.281 123.766 500.636 123.637 500.914 123.388L504.344 120.312V125.312Z" fill="white"/>
<path d="M507.773 130.362L507.128 130.941C507.015 130.662 506.829 130.424 506.593 130.257C506.356 130.09 506.08 130 505.797 130H494.172C493.786 130 493.417 130.165 493.144 130.458C492.872 130.751 492.719 131.148 492.719 131.562V144.062C492.719 144.477 492.872 144.874 493.144 145.167C493.417 145.46 493.786 145.625 494.172 145.625H505.797C506.182 145.625 506.552 145.46 506.824 145.167C507.097 144.874 507.25 144.477 507.25 144.062V134.898L509.633 132.763L507.773 130.362ZM504.344 142.5H495.625V133.125H504.344V133.438L500.074 137.264L498.105 135.145L496.051 137.355L498.957 140.48C499.213 140.755 499.556 140.918 499.919 140.935C500.281 140.953 500.636 140.825 500.914 140.575L504.344 137.5V142.5Z" fill="white"/>
<path d="M517.422 115.938H510.156V119.062H517.422V115.938Z" fill="white"/>
<path d="M530.5 115.938H520.328V119.062H530.5V115.938Z" fill="white"/>
<path d="M521.781 122.188H510.156V125.312H521.781V122.188Z" fill="white"/>
<path d="M530.5 122.188H524.688V125.312H530.5V122.188Z" fill="white"/>
<path d="M530.5 139.375H510.156V142.5H530.5V139.375Z" fill="white"/>
<path d="M524.688 133.125H510.156V136.25H524.688V133.125Z" fill="white"/>
<path d="M530.5 133.125H527.594V136.25H530.5V133.125Z" fill="white"/>
<path d="M539.073 80.6984L541.573 75.3125L545.06 92.8312C545.127 93.1668 545.294 93.4695 545.537 93.6926C545.779 93.9156 546.083 94.0467 546.402 94.0656H546.484C546.789 94.0657 547.087 93.9625 547.334 93.7707C547.582 93.5789 547.767 93.3081 547.863 92.9969L550.967 82.9812L552.4 86.8344C552.504 87.1138 552.681 87.355 552.91 87.5288C553.139 87.7026 553.409 87.8017 553.689 87.8141C553.968 87.821 554.244 87.7439 554.484 87.5915C554.725 87.4391 554.921 87.2175 555.051 86.9516L557.554 81.5625H561.016V78.4375H556.656C556.385 78.4359 556.119 78.516 555.888 78.6687C555.656 78.8214 555.47 79.0406 555.348 79.3016L553.895 82.4391L552.191 77.8562C552.08 77.5586 551.887 77.3047 551.638 77.1289C551.389 76.9531 551.096 76.864 550.798 76.8735C550.5 76.8831 550.212 76.9909 549.973 77.1823C549.734 77.3738 549.556 77.6396 549.462 77.9437L546.79 86.575L543.546 70.2984C543.485 69.979 543.333 69.688 543.11 69.4664C542.888 69.2448 542.606 69.1036 542.305 69.0626C542.005 69.0216 541.699 69.0828 541.432 69.2378C541.165 69.3927 540.95 69.6336 540.817 69.9266L536.868 78.4375H531.953V81.5625H537.766C538.037 81.5641 538.303 81.484 538.534 81.3313C538.765 81.1786 538.952 80.9594 539.073 80.6984Z" fill="white"/>
<path d="M559.401 55C556.971 54.9916 554.566 55.5308 552.341 56.5827C550.116 57.6347 548.121 59.1762 546.484 61.1078C544.847 59.1762 542.852 57.6347 540.628 56.5827C538.403 55.5308 535.998 54.9916 533.568 55C528.896 55.0111 524.42 57.0142 521.121 60.5698C517.822 64.1253 515.969 68.9429 515.969 73.9656C515.969 75.577 516.124 77.184 516.432 78.7609L519.276 78.114C519.009 76.7498 518.875 75.3596 518.875 73.9656C518.874 69.7715 520.421 65.7482 523.175 62.7786C525.93 59.8089 529.667 58.1353 533.568 58.125C535.854 58.1189 538.11 58.692 540.152 59.7979C542.194 60.9039 543.965 62.5115 545.322 64.4906C545.463 64.6752 545.641 64.8238 545.842 64.9259C546.043 65.0279 546.262 65.0808 546.484 65.0808C546.707 65.0808 546.926 65.0279 547.127 64.9259C547.328 64.8238 547.506 64.6752 547.647 64.4906C549.004 62.5115 550.775 60.9039 552.817 59.7979C554.859 58.692 557.115 58.1189 559.401 58.125C563.302 58.1353 567.039 59.8089 569.794 62.7786C572.548 65.7482 574.095 69.7715 574.094 73.9656C574.103 76.8314 573.528 79.6646 572.409 82.2654C571.29 84.8663 569.653 87.1716 567.616 89.0187L546.484 107.667L541.593 103.35L539.751 105.766L545.563 110.895C545.823 111.124 546.148 111.249 546.484 111.249C546.82 111.249 547.146 111.124 547.406 110.895L569.46 91.4343C571.843 89.3065 573.756 86.635 575.061 83.6136C576.365 80.5922 577.027 77.2965 577 73.9656C577 68.9429 575.147 64.1253 571.848 60.5698C568.549 57.0142 564.072 55.0111 559.401 55Z" fill="white"/>
</g>
<g clip-path="url(#clip13_8_41)">
<path fill-rule="evenodd" clip-rule="evenodd" d="M440.542 125.969H418.791C415.321 125.969 412.494 122.952 412.494 119.249V118.571C412.494 114.868 415.321 111.85 418.791 111.85H440.542C444.012 111.85 446.839 114.868 446.839 118.571V119.249C446.839 122.952 444.012 125.969 440.542 125.969ZM418.791 114.443C413.629 114.443 413.629 123.359 418.791 123.359H440.542C445.703 123.359 445.703 114.443 440.542 114.443H418.791Z" fill="white"/>
<path fill-rule="evenodd" clip-rule="evenodd" d="M440.703 188.289H418.63C415.16 188.289 412.333 185.271 412.333 181.568V140.25C412.333 136.547 415.16 133.529 418.63 133.529H440.703C444.172 133.529 446.999 136.547 446.999 140.25V181.568C446.999 185.28 444.172 188.289 440.703 188.289ZM418.63 136.131C416.497 136.131 414.771 137.983 414.771 140.25V181.568C414.771 183.844 416.506 185.687 418.63 185.687H440.703C442.836 185.687 444.562 183.835 444.562 181.568V140.25C444.562 137.973 442.827 136.131 440.703 136.131H418.63Z" fill="white"/>
<path fill-rule="evenodd" clip-rule="evenodd" d="M419.62 136.132C418.952 136.132 418.401 135.553 418.401 134.831V124.668C418.401 122.956 420.839 122.956 420.839 124.668V134.84C420.847 135.553 420.297 136.132 419.62 136.132Z" fill="white"/>
<path fill-rule="evenodd" clip-rule="evenodd" d="M439.712 136.132C439.044 136.132 438.494 135.553 438.494 134.831V124.668C438.494 122.956 440.931 122.956 440.931 124.668V134.84C440.931 135.553 440.381 136.132 439.712 136.132Z" fill="white"/>
<path fill-rule="evenodd" clip-rule="evenodd" d="M411.216 96.1415C409.98 96.1415 409.539 94.3861 410.598 93.7207L421.465 86.8916C422.852 86.0207 424.076 88.2679 422.7 89.1316L411.833 95.9607C411.638 96.0875 411.427 96.1415 411.216 96.1415Z" fill="white"/>
<path fill-rule="evenodd" clip-rule="evenodd" d="M405.757 103.269C405.339 103.269 404.921 103.018 404.707 102.627L401.678 97.1438C401.339 96.5207 401.534 95.7253 402.109 95.3643L407.907 91.7149C409.134 90.9468 410.716 91.3806 411.445 92.6905C412.456 94.5181 413.75 96.1812 413.357 97.7584C413.18 98.4719 412.765 99.0683 412.173 99.4384C411.246 100.019 406.423 103.269 405.757 103.269H405.757ZM404.403 96.9454L406.189 100.188L410.937 97.2075C411.193 97.0495 409.536 94.3536 409.346 94.0186C409.304 93.9464 409.219 93.9191 409.152 93.9646L404.403 96.9454H404.403Z" fill="white"/>
<path fill-rule="evenodd" clip-rule="evenodd" d="M367.882 131.398C367.467 131.398 367.061 131.172 366.833 130.757L360.265 118.842C359.924 118.216 360.129 117.416 360.696 117.063L397.995 93.6212C399.865 92.4466 402.295 93.1152 403.395 95.1119L407.203 102.004C408.304 104 407.678 106.593 405.807 107.767L368.499 131.218C368.305 131.344 368.093 131.399 367.882 131.399L367.882 131.398ZM362.981 118.652L368.314 128.318L404.563 105.536C405.283 105.084 405.519 104.1 405.096 103.332L401.296 96.4394C400.873 95.6713 399.951 95.4189 399.231 95.8703L362.982 118.652H362.981Z" fill="white"/>
<path fill-rule="evenodd" clip-rule="evenodd" d="M348.915 135.3C347.685 135.3 347.229 133.546 348.297 132.88L358.741 126.313C360.127 125.442 361.358 127.691 359.977 128.553L349.533 135.12C349.338 135.246 349.118 135.3 348.915 135.3Z" fill="white"/>
<path fill-rule="evenodd" clip-rule="evenodd" d="M353.604 143.809C353.189 143.809 352.784 143.584 352.555 143.168L343.169 126.159C342.354 124.672 344.463 123.37 345.267 124.84L354.654 141.849C355.136 142.729 354.536 143.809 353.604 143.809Z" fill="white"/>
<path fill-rule="evenodd" clip-rule="evenodd" d="M395.245 114.28C394.83 114.28 394.424 114.054 394.196 113.638L391.488 108.733C390.673 107.246 392.782 105.945 393.586 107.414L396.294 112.319C396.768 113.184 396.185 114.28 395.245 114.28Z" fill="white"/>
<path fill-rule="evenodd" clip-rule="evenodd" d="M388.77 118.255C388.355 118.255 387.949 118.029 387.721 117.614L385.013 112.699C384.201 111.215 386.304 109.903 387.112 111.38L389.82 116.295C390.302 117.175 389.701 118.255 388.77 118.255Z" fill="white"/>
<path fill-rule="evenodd" clip-rule="evenodd" d="M382.33 122.32C381.915 122.32 381.509 122.094 381.28 121.679L378.572 116.773C377.76 115.29 379.862 113.976 380.671 115.454L383.379 120.36C383.867 121.251 383.248 122.32 382.33 122.32Z" fill="white"/>
<path fill-rule="evenodd" clip-rule="evenodd" d="M375.889 126.367C375.474 126.367 375.068 126.141 374.839 125.725L372.131 120.811C371.32 119.327 373.421 118.014 374.23 119.492L376.938 124.397C377.431 125.297 376.789 126.367 375.889 126.367Z" fill="white"/>
<path fill-rule="evenodd" clip-rule="evenodd" d="M366.02 137.648C364.513 137.648 363.108 136.808 362.339 135.417L354.273 120.802C352.362 117.347 355.336 113.075 359.004 114.099C360.105 114.406 361.035 115.147 361.611 116.185L369.677 130.801C371.346 133.821 369.286 137.648 366.02 137.648ZM357.938 116.538C356.559 116.538 355.665 118.174 356.372 119.474L364.438 134.089C365.648 136.277 368.817 134.339 367.578 132.111L359.512 117.495C359.189 116.91 358.583 116.538 357.938 116.538H357.938Z" fill="white"/>
<path fill-rule="evenodd" clip-rule="evenodd" d="M445.781 173.005H413.551C412.883 173.005 412.333 172.418 412.333 171.704V150.124C412.333 149.41 412.883 148.823 413.551 148.823H445.781C446.449 148.823 446.999 149.41 446.999 150.124V171.704C446.999 172.418 446.449 173.005 445.781 173.005ZM414.77 170.403H444.562V151.424H414.77V170.403Z" fill="white"/>
</g>
<path d="M945.969 110.344V149.844C945.969 152.559 948.359 154.781 951.281 154.781H1009.72C1012.64 154.781 1015.03 152.559 1015.03 149.844V110.344C1015.03 107.628 1012.64 105.406 1009.72 105.406H951.281C948.359 105.406 945.969 107.628 945.969 110.344Z" stroke="white" stroke-width="2" stroke-miterlimit="10" stroke-linecap="round" stroke-linejoin="round"/>
<path d="M961.906 169.594H999.094" stroke="white" stroke-width="2" stroke-miterlimit="10" stroke-linecap="round" stroke-linejoin="round"/>
<path d="M972.531 154.781C972.531 159.966 970.672 166.138 967.75 169.594" stroke="#FCFFFF" stroke-width="2" stroke-miterlimit="10" stroke-linecap="round" stroke-linejoin="round"/>
<path d="M993.25 169.594C990.328 166.138 988.469 159.966 988.469 154.781" stroke="white" stroke-width="2" stroke-miterlimit="10" stroke-linecap="round" stroke-linejoin="round"/>
<path d="M956.594 130.094H969.875L975.188 125.156L980.5 135.031L985.812 122.688L991.125 130.094H1004.41" stroke="white" stroke-width="2" stroke-miterlimit="10" stroke-linecap="round" stroke-linejoin="round"/>
<path d="M1408.97 16.3438V55.8438C1408.97 58.5594 1411.36 60.7812 1414.28 60.7812H1472.72C1475.64 60.7812 1478.03 58.5594 1478.03 55.8438V16.3438C1478.03 13.6281 1475.64 11.4062 1472.72 11.4062H1414.28C1411.36 11.4062 1408.97 13.6281 1408.97 16.3438Z" stroke="white" stroke-width="2" stroke-miterlimit="10" stroke-linecap="round" stroke-linejoin="round"/>
<path d="M1424.91 75.5938H1462.09" stroke="white" stroke-width="2" stroke-miterlimit="10" stroke-linecap="round" stroke-linejoin="round"/>
<path d="M1435.53 60.7812C1435.53 65.9656 1433.67 72.1375 1430.75 75.5938" stroke="#FCFFFF" stroke-width="2" stroke-miterlimit="10" stroke-linecap="round" stroke-linejoin="round"/>
<path d="M1456.25 75.5938C1453.33 72.1375 1451.47 65.9656 1451.47 60.7812" stroke="white" stroke-width="2" stroke-miterlimit="10" stroke-linecap="round" stroke-linejoin="round"/>
<path d="M1419.59 36.0938H1432.88L1438.19 31.1562L1443.5 41.0312L1448.81 28.6875L1454.12 36.0938H1467.41" stroke="white" stroke-width="2" stroke-miterlimit="10" stroke-linecap="round" stroke-linejoin="round"/>
<g clip-path="url(#clip14_8_41)">
<path fill-rule="evenodd" clip-rule="evenodd" d="M882.542 117.969H860.791C857.321 117.969 854.494 114.952 854.494 111.249V110.571C854.494 106.868 857.321 103.85 860.791 103.85H882.542C886.012 103.85 888.839 106.868 888.839 110.571V111.249C888.839 114.952 886.012 117.969 882.542 117.969ZM860.791 106.443C855.629 106.443 855.629 115.359 860.791 115.359H882.542C887.703 115.359 887.703 106.443 882.542 106.443H860.791Z" fill="white"/>
<path fill-rule="evenodd" clip-rule="evenodd" d="M882.703 180.289H860.63C857.16 180.289 854.333 177.271 854.333 173.568V132.25C854.333 128.547 857.16 125.529 860.63 125.529H882.703C886.172 125.529 888.999 128.547 888.999 132.25V173.568C888.999 177.28 886.172 180.289 882.703 180.289ZM860.63 128.131C858.497 128.131 856.771 129.983 856.771 132.25V173.568C856.771 175.844 858.506 177.687 860.63 177.687H882.703C884.836 177.687 886.562 175.835 886.562 173.568V132.25C886.562 129.973 884.827 128.131 882.703 128.131H860.63Z" fill="white"/>
<path fill-rule="evenodd" clip-rule="evenodd" d="M861.62 128.132C860.952 128.132 860.401 127.553 860.401 126.831V116.668C860.401 114.956 862.839 114.956 862.839 116.668V126.84C862.847 127.553 862.297 128.132 861.62 128.132Z" fill="white"/>
<path fill-rule="evenodd" clip-rule="evenodd" d="M881.713 128.132C881.044 128.132 880.494 127.553 880.494 126.831V116.668C880.494 114.956 882.931 114.956 882.931 116.668V126.84C882.931 127.553 882.381 128.132 881.713 128.132Z" fill="white"/>
<path fill-rule="evenodd" clip-rule="evenodd" d="M853.216 88.1415C851.98 88.1415 851.539 86.3861 852.598 85.7207L863.465 78.8916C864.852 78.0207 866.076 80.2679 864.701 81.1316L853.833 87.9607C853.638 88.0875 853.427 88.1415 853.216 88.1415Z" fill="white"/>
<path fill-rule="evenodd" clip-rule="evenodd" d="M847.757 95.2685C847.339 95.2685 846.921 95.0181 846.707 94.6272L843.678 89.1438C843.339 88.5207 843.534 87.7253 844.109 87.3643L849.907 83.7149C851.134 82.9468 852.717 83.3806 853.445 84.6905C854.456 86.5181 855.75 88.1812 855.358 89.7584C855.18 90.4719 854.765 91.0683 854.173 91.4384C853.246 92.0192 848.423 95.2685 847.757 95.2685H847.757ZM846.403 88.9454L848.189 92.1883L852.937 89.2075C853.193 89.0495 851.536 86.3536 851.346 86.0186C851.304 85.9464 851.219 85.9191 851.152 85.9646L846.403 88.9454H846.403Z" fill="white"/>
<path fill-rule="evenodd" clip-rule="evenodd" d="M809.882 123.398C809.467 123.398 809.061 123.172 808.833 122.757L802.265 110.842C801.924 110.216 802.129 109.416 802.696 109.063L839.995 85.6212C841.865 84.4466 844.295 85.1152 845.395 87.1119L849.203 94.0041C850.304 96.0002 849.678 98.5933 847.807 99.7673L810.499 123.218C810.305 123.344 810.093 123.399 809.882 123.399L809.882 123.398ZM804.981 110.652L810.314 120.318L846.563 97.5358C847.283 97.0844 847.519 96.0997 847.096 95.3316L843.296 88.4394C842.873 87.6713 841.951 87.4189 841.231 87.8703L804.982 110.652H804.981Z" fill="white"/>
<path fill-rule="evenodd" clip-rule="evenodd" d="M790.915 127.3C789.685 127.3 789.229 125.546 790.297 124.88L800.741 118.313C802.127 117.442 803.358 119.691 801.977 120.553L791.533 127.12C791.338 127.246 791.118 127.3 790.915 127.3Z" fill="white"/>
<path fill-rule="evenodd" clip-rule="evenodd" d="M795.604 135.809C795.189 135.809 794.784 135.584 794.555 135.168L785.169 118.159C784.354 116.672 786.463 115.37 787.268 116.84L796.654 133.849C797.136 134.729 796.536 135.809 795.604 135.809Z" fill="white"/>
<path fill-rule="evenodd" clip-rule="evenodd" d="M837.245 106.28C836.83 106.28 836.424 106.054 836.196 105.638L833.488 100.733C832.673 99.2457 834.782 97.9449 835.586 99.4141L838.294 104.319C838.768 105.184 838.185 106.28 837.245 106.28Z" fill="white"/>
<path fill-rule="evenodd" clip-rule="evenodd" d="M830.77 110.255C830.355 110.255 829.95 110.029 829.721 109.614L827.013 104.699C826.201 103.215 828.304 101.903 829.112 103.38L831.82 108.295C832.302 109.175 831.702 110.255 830.77 110.255Z" fill="white"/>
<path fill-rule="evenodd" clip-rule="evenodd" d="M824.33 114.32C823.915 114.32 823.509 114.094 823.28 113.679L820.572 108.773C819.76 107.29 821.862 105.976 822.671 107.454L825.379 112.36C825.867 113.251 825.248 114.32 824.33 114.32Z" fill="white"/>
<path fill-rule="evenodd" clip-rule="evenodd" d="M817.889 118.367C817.474 118.367 817.068 118.141 816.839 117.725L814.131 112.811C813.32 111.327 815.421 110.014 816.23 111.492L818.938 116.397C819.431 117.297 818.789 118.367 817.889 118.367Z" fill="white"/>
<path fill-rule="evenodd" clip-rule="evenodd" d="M808.02 129.648C806.513 129.648 805.108 128.808 804.339 127.417L796.273 112.802C794.362 109.347 797.336 105.075 801.004 106.099C802.105 106.406 803.035 107.147 803.611 108.185L811.677 122.801C813.346 125.821 811.286 129.648 808.02 129.648ZM799.938 108.538C798.559 108.538 797.665 110.174 798.372 111.474L806.438 126.089C807.648 128.277 810.817 126.339 809.578 124.111L801.512 109.495C801.189 108.91 800.583 108.538 799.938 108.538H799.938Z" fill="white"/>
<path fill-rule="evenodd" clip-rule="evenodd" d="M887.781 165.005H855.551C854.883 165.005 854.333 164.418 854.333 163.704V142.124C854.333 141.41 854.883 140.823 855.551 140.823H887.781C888.449 140.823 888.999 141.41 888.999 142.124V163.704C888.999 164.418 888.449 165.005 887.781 165.005ZM856.77 162.403H886.562V143.424H856.77V162.403Z" fill="white"/>
</g>
<g clip-path="url(#clip15_8_41)">
<path fill-rule="evenodd" clip-rule="evenodd" d="M1564.54 110.969H1542.79C1539.32 110.969 1536.49 107.952 1536.49 104.249V103.571C1536.49 99.8676 1539.32 96.8505 1542.79 96.8505H1564.54C1568.01 96.8505 1570.84 99.8676 1570.84 103.571V104.249C1570.84 107.952 1568.01 110.969 1564.54 110.969ZM1542.79 99.4429C1537.63 99.4429 1537.63 108.359 1542.79 108.359H1564.54C1569.7 108.359 1569.7 99.4429 1564.54 99.4429H1542.79Z" fill="white"/>
<path fill-rule="evenodd" clip-rule="evenodd" d="M1564.7 173.289H1542.63C1539.16 173.289 1536.33 170.271 1536.33 166.568V125.25C1536.33 121.547 1539.16 118.529 1542.63 118.529H1564.7C1568.17 118.529 1571 121.547 1571 125.25V166.568C1571 170.28 1568.17 173.289 1564.7 173.289ZM1542.63 121.131C1540.5 121.131 1538.77 122.983 1538.77 125.25V166.568C1538.77 168.844 1540.51 170.687 1542.63 170.687H1564.7C1566.84 170.687 1568.56 168.835 1568.56 166.568V125.25C1568.56 122.973 1566.83 121.131 1564.7 121.131H1542.63Z" fill="white"/>
<path fill-rule="evenodd" clip-rule="evenodd" d="M1543.62 121.132C1542.95 121.132 1542.4 120.553 1542.4 119.831V109.668C1542.4 107.956 1544.84 107.956 1544.84 109.668V119.84C1544.85 120.553 1544.3 121.132 1543.62 121.132Z" fill="white"/>
<path fill-rule="evenodd" clip-rule="evenodd" d="M1563.71 121.132C1563.04 121.132 1562.49 120.553 1562.49 119.831V109.668C1562.49 107.956 1564.93 107.956 1564.93 109.668V119.84C1564.93 120.553 1564.38 121.132 1563.71 121.132Z" fill="white"/>
<path fill-rule="evenodd" clip-rule="evenodd" d="M1535.22 81.1415C1533.98 81.1415 1533.54 79.3861 1534.6 78.7207L1545.46 71.8916C1546.85 71.0207 1548.08 73.2679 1546.7 74.1316L1535.83 80.9607C1535.64 81.0875 1535.43 81.1415 1535.22 81.1415Z" fill="white"/>
<path fill-rule="evenodd" clip-rule="evenodd" d="M1529.76 88.2685C1529.34 88.2685 1528.92 88.0181 1528.71 87.6272L1525.68 82.1438C1525.34 81.5207 1525.53 80.7253 1526.11 80.3643L1531.91 76.7149C1533.13 75.9468 1534.72 76.3806 1535.44 77.6905C1536.46 79.5181 1537.75 81.1812 1537.36 82.7584C1537.18 83.4719 1536.77 84.0683 1536.17 84.4384C1535.25 85.0192 1530.42 88.2685 1529.76 88.2685H1529.76ZM1528.4 81.9454L1530.19 85.1883L1534.94 82.2075C1535.19 82.0495 1533.54 79.3536 1533.35 79.0186C1533.3 78.9464 1533.22 78.9191 1533.15 78.9646L1528.4 81.9454H1528.4Z" fill="white"/>
<path fill-rule="evenodd" clip-rule="evenodd" d="M1491.88 116.398C1491.47 116.398 1491.06 116.172 1490.83 115.757L1484.26 103.842C1483.92 103.216 1484.13 102.416 1484.7 102.063L1522 78.6212C1523.87 77.4466 1526.29 78.1152 1527.39 80.1119L1531.2 87.0041C1532.3 89.0002 1531.68 91.5933 1529.81 92.7673L1492.5 116.218C1492.31 116.344 1492.09 116.399 1491.88 116.399L1491.88 116.398ZM1486.98 103.652L1492.31 113.318L1528.56 90.5358C1529.28 90.0844 1529.52 89.0997 1529.1 88.3316L1525.3 81.4394C1524.87 80.6713 1523.95 80.4189 1523.23 80.8703L1486.98 103.652H1486.98Z" fill="white"/>
<path fill-rule="evenodd" clip-rule="evenodd" d="M1472.92 120.3C1471.68 120.3 1471.23 118.546 1472.3 117.88L1482.74 111.313C1484.13 110.442 1485.36 112.691 1483.98 113.553L1473.53 120.12C1473.34 120.246 1473.12 120.3 1472.92 120.3Z" fill="white"/>
<path fill-rule="evenodd" clip-rule="evenodd" d="M1477.6 128.809C1477.19 128.809 1476.78 128.584 1476.56 128.168L1467.17 111.159C1466.35 109.672 1468.46 108.37 1469.27 109.84L1478.65 126.849C1479.14 127.729 1478.54 128.809 1477.6 128.809Z" fill="white"/>
<path fill-rule="evenodd" clip-rule="evenodd" d="M1519.24 99.2797C1518.83 99.2797 1518.42 99.054 1518.2 98.6384L1515.49 93.7331C1514.67 92.2457 1516.78 90.9449 1517.59 92.4141L1520.29 97.3194C1520.77 98.1837 1520.19 99.2797 1519.24 99.2797Z" fill="white"/>
<path fill-rule="evenodd" clip-rule="evenodd" d="M1512.77 103.255C1512.36 103.255 1511.95 103.029 1511.72 102.614L1509.01 97.6992C1508.2 96.215 1510.3 94.9025 1511.11 96.3802L1513.82 101.295C1514.3 102.175 1513.7 103.255 1512.77 103.255Z" fill="white"/>
<path fill-rule="evenodd" clip-rule="evenodd" d="M1506.33 107.32C1505.91 107.32 1505.51 107.094 1505.28 106.679L1502.57 101.773C1501.76 100.29 1503.86 98.9759 1504.67 100.454L1507.38 105.36C1507.87 106.251 1507.25 107.32 1506.33 107.32Z" fill="white"/>
<path fill-rule="evenodd" clip-rule="evenodd" d="M1499.89 111.367C1499.47 111.367 1499.07 111.141 1498.84 110.725L1496.13 105.811C1495.32 104.327 1497.42 103.014 1498.23 104.492L1500.94 109.397C1501.43 110.297 1500.79 111.367 1499.89 111.367Z" fill="white"/>
<path fill-rule="evenodd" clip-rule="evenodd" d="M1490.02 122.648C1488.51 122.648 1487.11 121.808 1486.34 120.417L1478.27 105.802C1476.36 102.347 1479.34 98.0751 1483 99.0989C1484.1 99.4059 1485.04 100.147 1485.61 101.185L1493.68 115.801C1495.35 118.821 1493.29 122.648 1490.02 122.648ZM1481.94 101.538C1480.56 101.538 1479.67 103.174 1480.37 104.474L1488.44 119.089C1489.65 121.277 1492.82 119.339 1491.58 117.111L1483.51 102.495C1483.19 101.91 1482.58 101.538 1481.94 101.538H1481.94Z" fill="white"/>
<path fill-rule="evenodd" clip-rule="evenodd" d="M1569.78 158.005H1537.55C1536.88 158.005 1536.33 157.418 1536.33 156.704V135.124C1536.33 134.41 1536.88 133.823 1537.55 133.823H1569.78C1570.45 133.823 1571 134.41 1571 135.124V156.704C1571 157.418 1570.45 158.005 1569.78 158.005ZM1538.77 155.403H1568.56V136.424H1538.77V155.403Z" fill="white"/>
</g>
<g clip-path="url(#clip16_8_41)">
<path fill-rule="evenodd" clip-rule="evenodd" d="M1472.2 141.25H1449L1444.91 137.549C1443.81 136.551 1442.33 136 1440.79 136H1425.8C1422.58 136 1420.03 138.336 1420.03 141.25L1420 172.75C1420 175.664 1422.58 178 1425.8 178H1472.2C1475.39 178 1478 175.638 1478 172.75V146.5C1478 143.612 1475.39 141.25 1472.2 141.25ZM1466.4 162.25H1460.6V167.5C1460.6 168.944 1459.3 170.125 1457.7 170.125C1456.1 170.125 1454.8 168.944 1454.8 167.5V162.25H1449C1447.41 162.25 1446.1 161.069 1446.1 159.625C1446.1 158.181 1447.41 157 1449 157H1454.8V151.75C1454.8 150.306 1456.1 149.125 1457.7 149.125C1459.3 149.125 1460.6 150.306 1460.6 151.75V157H1466.4C1468 157 1469.3 158.181 1469.3 159.625C1469.3 161.069 1468 162.25 1466.4 162.25Z" fill="white"/>
</g>
<path d="M697.042 105.769C699.782 108.314 703.064 110.338 706.691 111.72C710.317 113.101 714.216 113.813 718.154 113.812C722.13 113.815 726.065 113.092 729.721 111.686" stroke="#F7F7F7" stroke-linecap="round" stroke-linejoin="round"/>
<path d="M712.25 129.75C722.03 129.75 729.958 122.615 729.958 113.812C729.958 105.01 722.03 97.875 712.25 97.875C702.47 97.875 694.542 105.01 694.542 113.812C694.542 122.615 702.47 129.75 712.25 129.75Z" stroke="white" stroke-linecap="round" stroke-linejoin="round"/>
<path d="M726.833 138.889C722.399 136.585 717.369 135.372 712.249 135.372C707.129 135.372 702.099 136.585 697.665 138.89C693.231 141.194 689.549 144.508 686.99 148.499C684.43 152.49 683.083 157.017 683.083 161.625V165.375H720.583" stroke="white" stroke-linecap="round" stroke-linejoin="round"/>
<path d="M774.75 150.375H733.083C730.782 150.375 728.917 152.054 728.917 154.125V180.375C728.917 182.446 730.782 184.125 733.083 184.125H774.75C777.051 184.125 778.917 182.446 778.917 180.375V154.125C778.917 152.054 777.051 150.375 774.75 150.375Z" stroke="white" stroke-linecap="round" stroke-linejoin="round"/>
<path d="M764.333 164.437C764.333 164.189 764.224 163.95 764.028 163.775C763.833 163.599 763.568 163.5 763.292 163.5H758.083V158.812C758.083 158.564 757.974 158.325 757.778 158.15C757.583 157.974 757.318 157.875 757.042 157.875H750.792C750.515 157.875 750.25 157.974 750.055 158.15C749.86 158.325 749.75 158.564 749.75 158.812V163.5H744.542C744.265 163.5 744 163.599 743.805 163.775C743.61 163.95 743.5 164.189 743.5 164.437V170.062C743.5 170.311 743.61 170.55 743.805 170.725C744 170.901 744.265 171 744.542 171H749.75V175.687C749.75 175.936 749.86 176.175 750.055 176.35C750.25 176.526 750.515 176.625 750.792 176.625H757.042C757.318 176.625 757.583 176.526 757.778 176.35C757.974 176.175 758.083 175.936 758.083 175.687V171H763.292C763.568 171 763.833 170.901 764.028 170.725C764.224 170.55 764.333 170.311 764.333 170.062V164.437Z" stroke="white" stroke-linecap="round" stroke-linejoin="round"/>
<path d="M745.583 150.375V146.625C745.583 145.63 746.022 144.677 746.804 143.973C747.585 143.27 748.645 142.875 749.75 142.875H758.083C759.188 142.875 760.248 143.27 761.03 143.973C761.811 144.677 762.25 145.63 762.25 146.625V150.375" stroke="white" stroke-linecap="round" stroke-linejoin="round"/>
<path d="M699.75 137.902V150.375" stroke="white" stroke-linecap="round" stroke-linejoin="round"/>
<path d="M699.75 157.875C702.051 157.875 703.917 156.196 703.917 154.125C703.917 152.054 702.051 150.375 699.75 150.375C697.449 150.375 695.583 152.054 695.583 154.125C695.583 156.196 697.449 157.875 699.75 157.875Z" stroke="white" stroke-linecap="round" stroke-linejoin="round"/>
<path d="M712.25 135.375V165.375" stroke="white" stroke-linecap="round" stroke-linejoin="round"/>
<path d="M726.833 138.885V144.75" stroke="white" stroke-linecap="round" stroke-linejoin="round"/>
<path d="M728.917 145.076C728.248 144.862 727.543 144.751 726.833 144.75C725.176 144.75 723.586 145.343 722.414 146.398C721.242 147.452 720.583 148.883 720.583 150.375V157.875" stroke="white" stroke-linecap="round" stroke-linejoin="round"/>
<path d="M1178.04 17.5286C1180.78 20.272 1184.06 22.4531 1187.69 23.9424C1191.32 25.4316 1195.22 26.1987 1199.15 26.1979C1203.13 26.2005 1207.06 25.4209 1210.72 23.9063" stroke="#F7F7F7" stroke-linecap="round" stroke-linejoin="round"/>
<path d="M1193.25 43.375C1203.03 43.375 1210.96 35.6845 1210.96 26.1979C1210.96 16.7113 1203.03 9.02081 1193.25 9.02081C1183.47 9.02081 1175.54 16.7113 1175.54 26.1979C1175.54 35.6845 1183.47 43.375 1193.25 43.375Z" stroke="white" stroke-linecap="round" stroke-linejoin="round"/>
<path d="M1207.83 53.2246C1203.4 50.7413 1198.37 49.4341 1193.25 49.4342C1188.13 49.4343 1183.1 50.7419 1178.67 53.2254C1174.23 55.7089 1170.55 59.2809 1167.99 63.5822C1165.43 67.8835 1164.08 72.7627 1164.08 77.7292V81.7709H1201.58" stroke="white" stroke-linecap="round" stroke-linejoin="round"/>
<path d="M1255.75 65.6042H1214.08C1211.78 65.6042 1209.92 67.4137 1209.92 69.6459V97.9375C1209.92 100.17 1211.78 101.979 1214.08 101.979H1255.75C1258.05 101.979 1259.92 100.17 1259.92 97.9375V69.6459C1259.92 67.4137 1258.05 65.6042 1255.75 65.6042Z" stroke="white" stroke-linecap="round" stroke-linejoin="round"/>
<path d="M1245.33 80.7604C1245.33 80.4924 1245.22 80.2354 1245.03 80.0459C1244.83 79.8565 1244.57 79.75 1244.29 79.75H1239.08V74.6979C1239.08 74.4299 1238.97 74.1729 1238.78 73.9834C1238.58 73.794 1238.32 73.6875 1238.04 73.6875H1231.79C1231.52 73.6875 1231.25 73.794 1231.06 73.9834C1230.86 74.1729 1230.75 74.4299 1230.75 74.6979V79.75H1225.54C1225.27 79.75 1225 79.8565 1224.81 80.0459C1224.61 80.2354 1224.5 80.4924 1224.5 80.7604V86.8229C1224.5 87.0909 1224.61 87.3479 1224.81 87.5374C1225 87.7269 1225.27 87.8333 1225.54 87.8333H1230.75V92.8854C1230.75 93.1534 1230.86 93.4104 1231.06 93.5999C1231.25 93.7894 1231.52 93.8958 1231.79 93.8958H1238.04C1238.32 93.8958 1238.58 93.7894 1238.78 93.5999C1238.97 93.4104 1239.08 93.1534 1239.08 92.8854V87.8333H1244.29C1244.57 87.8333 1244.83 87.7269 1245.03 87.5374C1245.22 87.3479 1245.33 87.0909 1245.33 86.8229V80.7604Z" stroke="white" stroke-linecap="round" stroke-linejoin="round"/>
<path d="M1226.58 65.6041V61.5625C1226.58 60.4906 1227.02 59.4626 1227.8 58.7046C1228.59 57.9466 1229.64 57.5208 1230.75 57.5208H1239.08C1240.19 57.5208 1241.25 57.9466 1242.03 58.7046C1242.81 59.4626 1243.25 60.4906 1243.25 61.5625V65.6041" stroke="white" stroke-linecap="round" stroke-linejoin="round"/>
<path d="M1180.75 52.1616V65.6041" stroke="white" stroke-linecap="round" stroke-linejoin="round"/>
<path d="M1180.75 73.6875C1183.05 73.6875 1184.92 71.878 1184.92 69.6459C1184.92 67.4137 1183.05 65.6042 1180.75 65.6042C1178.45 65.6042 1176.58 67.4137 1176.58 69.6459C1176.58 71.878 1178.45 73.6875 1180.75 73.6875Z" stroke="white" stroke-linecap="round" stroke-linejoin="round"/>
<path d="M1193.25 49.4375V81.7708" stroke="white" stroke-linecap="round" stroke-linejoin="round"/>
<path d="M1207.83 53.2205V59.5417" stroke="white" stroke-linecap="round" stroke-linejoin="round"/>
<path d="M1209.92 59.8933C1209.25 59.6622 1208.54 59.5433 1207.83 59.5417C1206.18 59.5417 1204.59 60.1804 1203.41 61.3174C1202.24 62.4543 1201.58 63.9963 1201.58 65.6042V73.6875" stroke="white" stroke-linecap="round" stroke-linejoin="round"/>
<path d="M1202.71 177H1211.58H1214.54H1229.33H1232.29H1253V116.5H1232.29V111H1211.58V127.5H1202.71V111H1182V177H1199.75H1202.71ZM1250.04 119.25V174.25H1232.29V119.25H1250.04ZM1214.54 113.75H1229.33V116.5V174.25H1214.54V127.5V113.75ZM1211.58 130.25V174.25H1202.71V130.25H1211.58ZM1184.96 174.25V113.75H1199.75V127.5V174.25H1184.96Z" fill="white"/>
<path d="M1196.79 168.75H1187.92V171.5H1196.79V168.75Z" fill="white"/>
<path d="M1196.79 161.875H1187.92V164.625H1196.79V161.875Z" fill="white"/>
<path d="M1196.79 155H1187.92V157.75H1196.79V155Z" fill="white"/>
<path d="M1247.08 168.75H1235.25V171.5H1247.08V168.75Z" fill="white"/>
<path d="M1247.08 161.875H1235.25V164.625H1247.08V161.875Z" fill="white"/>
<path d="M1247.08 155H1235.25V157.75H1247.08V155Z" fill="white"/>
<path d="M1226.38 152.25H1217.5V155H1226.38V152.25Z" fill="white"/>
<path d="M1226.38 157.75H1217.5V160.5H1226.38V157.75Z" fill="white"/>
<path d="M1226.38 117.875H1217.5V120.625H1226.38V117.875Z" fill="white"/>
<path d="M1226.38 123.375H1217.5V126.125H1226.38V123.375Z" fill="white"/>
<path d="M1226.38 163.25H1217.5V166H1226.38V163.25Z" fill="white"/>
<path d="M1226.38 168.75H1217.5V171.5H1226.38V168.75Z" fill="white"/>
<path d="M1193.83 119.25H1190.88V122H1193.83V119.25Z" fill="white"/>
<path d="M1242.65 124.75H1239.69V127.5H1242.65V124.75Z" fill="white"/>
<path d="M1338.59 121.02H1358.41C1359.58 121.02 1360.6 120.242 1360.89 119.129C1362.32 113.649 1359.87 107.909 1354.88 105.067C1355.7 103.865 1356.18 102.419 1356.18 100.865C1356.18 96.6983 1352.73 93.3075 1348.5 93.3075C1344.27 93.3075 1340.83 96.6983 1340.83 100.865C1340.83 102.419 1341.3 103.865 1342.13 105.067C1337.14 107.903 1334.68 113.637 1336.11 119.129C1336.4 120.241 1337.42 121.02 1338.59 121.02ZM1345.94 100.865C1345.94 99.4763 1347.09 98.3456 1348.5 98.3456C1349.91 98.3456 1351.06 99.4763 1351.06 100.865C1351.06 102.255 1349.91 103.384 1348.5 103.384C1347.09 103.384 1345.94 102.255 1345.94 100.865ZM1348.5 108.423C1352.73 108.423 1356.18 111.813 1356.18 115.982H1340.83C1340.83 111.813 1344.27 108.423 1348.5 108.423Z" fill="white"/>
<path d="M1348.5 128.578C1348.5 127.187 1347.36 126.058 1345.94 126.058H1325.48C1324.06 126.058 1322.92 127.187 1322.92 128.578C1322.92 129.968 1324.06 131.096 1325.48 131.096H1345.94C1347.36 131.096 1348.5 129.968 1348.5 128.578Z" fill="white"/>
<path d="M1356.18 128.578C1356.18 129.968 1357.32 131.096 1358.73 131.096H1371.52C1372.94 131.096 1374.08 129.968 1374.08 128.578C1374.08 127.187 1372.94 126.058 1371.52 126.058H1358.73C1357.32 126.058 1356.18 127.187 1356.18 128.578Z" fill="white"/>
<path d="M1345.94 136.135H1335.71C1334.3 136.135 1333.15 137.263 1333.15 138.654C1333.15 140.046 1334.3 141.174 1335.71 141.174H1345.94C1347.36 141.174 1348.5 140.046 1348.5 138.654C1348.5 137.263 1347.36 136.135 1345.94 136.135Z" fill="white"/>
<path d="M1371.52 136.135H1358.73C1357.32 136.135 1356.18 137.263 1356.18 138.654C1356.18 140.046 1357.32 141.174 1358.73 141.174H1371.52C1372.94 141.174 1374.08 140.046 1374.08 138.654C1374.08 137.263 1372.94 136.135 1371.52 136.135Z" fill="white"/>
<path d="M1407.34 173.923H1399.67V68.1149C1399.67 66.7234 1398.52 65.5964 1397.11 65.5964H1371.52V60.5569C1371.52 59.1663 1370.38 58.0383 1368.97 58.0383H1328.03C1326.62 58.0383 1325.48 59.1666 1325.48 60.5569V65.5964H1299.89C1298.48 65.5964 1297.33 66.7234 1297.33 68.1149V173.923H1289.66C1288.25 173.923 1287.1 175.052 1287.1 176.443C1287.1 177.835 1288.25 178.962 1289.66 178.962C1294.93 178.962 1398.63 178.962 1407.34 178.962C1408.75 178.962 1409.9 177.835 1409.9 176.443C1409.9 175.052 1408.75 173.923 1407.34 173.923ZM1315.24 148.731H1322.92V158.808L1315.24 148.731ZM1325.48 143.693H1312.68V80.7111H1325.48V85.7494C1325.48 87.1407 1326.62 88.2692 1328.03 88.2692H1368.97C1370.38 88.2692 1371.52 87.1407 1371.52 85.7494V80.7111H1384.32V163.847H1328.03V146.212C1328.03 144.821 1326.89 143.693 1325.48 143.693ZM1358.73 83.2309H1338.27V70.6345H1358.73V83.2309ZM1330.59 63.0766H1366.41V83.2309H1363.85V68.1149C1363.85 66.7234 1362.7 65.5964 1361.29 65.5964H1335.71C1334.3 65.5964 1333.15 66.7234 1333.15 68.1149V83.2309H1330.59V63.0766ZM1302.45 173.923V70.6345H1325.48V75.6728H1310.12C1308.71 75.6728 1307.57 76.8013 1307.57 78.1926C1307.57 149.376 1307.55 146.325 1307.61 146.67C1307.67 146.984 1307.79 147.303 1307.98 147.588C1308.04 147.676 1323.41 167.875 1323.58 168.055C1324.08 168.6 1324.78 168.886 1325.48 168.886H1386.87C1388.29 168.886 1389.43 167.757 1389.43 166.366V78.1926C1389.43 76.8013 1388.29 75.6728 1386.87 75.6728H1371.52V70.6345H1394.55V173.923H1302.45Z" fill="white"/>
<path d="M1343.38 146.212H1338.27V151.25H1343.38V146.212Z" fill="white"/>
<path d="M1353.62 146.212H1348.5V151.25H1353.62V146.212Z" fill="white"/>
<path d="M1363.85 146.212H1358.73V151.25H1363.85V146.212Z" fill="white"/>
<path d="M1374.08 146.212H1368.97V151.25H1374.08V146.212Z" fill="white"/>
</g>
<defs>
<clipPath id="clip0_8_41">
<rect width="1680" height="186" fill="white"/>
</clipPath>
<clipPath id="clip1_8_41">
<rect width="69.977" height="69.1991" fill="white" transform="translate(23.665 108.646) rotate(-0.0229451)"/>
</clipPath>
<clipPath id="clip2_8_41">
<rect width="94.1347" height="97.4119" fill="white" transform="translate(77 8.03412) rotate(-19.2492)"/>
</clipPath>
<clipPath id="clip3_8_41">
<rect width="94.1347" height="97.4119" fill="white" transform="translate(833 8.03412) rotate(-19.2492)"/>
</clipPath>
<clipPath id="clip4_8_41">
<rect width="94.1347" height="97.4119" fill="white" transform="translate(1584 110.034) rotate(-19.2492)"/>
</clipPath>
<clipPath id="clip5_8_41">
<rect width="111" height="94" fill="white" transform="translate(111 92)"/>
</clipPath>
<clipPath id="clip6_8_41">
<rect width="111" height="94" fill="white" transform="translate(713 5)"/>
</clipPath>
<clipPath id="clip7_8_41">
<rect width="111" height="94" fill="white" transform="translate(1050 82)"/>
</clipPath>
<clipPath id="clip8_8_41">
<rect width="118" height="101" fill="white" transform="translate(271 4)"/>
</clipPath>
<clipPath id="clip9_8_41">
<rect width="118" height="101" fill="white" transform="translate(1015 17.0205) rotate(-20.8613)"/>
</clipPath>
<clipPath id="clip10_8_41">
<rect width="118" height="101" fill="white" transform="translate(1515 26.0205) rotate(-20.8613)"/>
</clipPath>
<clipPath id="clip11_8_41">
<rect width="118" height="85" fill="white" transform="translate(539 109)"/>
</clipPath>
<clipPath id="clip12_8_41">
<rect width="93" height="100" fill="white" transform="translate(484 55)"/>
</clipPath>
<clipPath id="clip13_8_41">
<rect width="104" height="111" fill="white" transform="translate(343 82)"/>
</clipPath>
<clipPath id="clip14_8_41">
<rect width="104" height="111" fill="white" transform="translate(785 74)"/>
</clipPath>
<clipPath id="clip15_8_41">
<rect width="104" height="111" fill="white" transform="translate(1467 67)"/>
</clipPath>
<clipPath id="clip16_8_41">
<rect width="58" height="42" fill="white" transform="translate(1420 136)"/>
</clipPath>
</defs>
</svg>
